<svg width="65" height="57" viewBox="0 0 65 57" fill="none" xmlns="http://www.w3.org/2000/svg">
<path d="M61 0H3.99998C3.16043 0.000977767 2.35554 0.334922 1.76189 0.928575C1.16823 1.52223 0.834291 2.32711 0.833313 3.16667V53.8333C0.834291 54.6729 1.16823 55.4778 1.76189 56.0714C2.35554 56.6651 3.16043 56.999 3.99998 57H61C61.8395 56.999 62.6444 56.6651 63.2381 56.0714C63.8317 55.4778 64.1657 54.6729 64.1666 53.8333V3.16667C64.1657 2.32711 63.8317 1.52223 63.2381 0.928575C62.6444 0.334922 61.8395 0.000977767 61 0ZM59.9444 52.7778H5.05554V4.22222H59.9444V52.7778Z" fill="black"/>
<path d="M18.7777 26.3891H22.9999V21.1113H28.2777V16.8891H22.9999V11.6113H18.7777V16.8891H13.4999V21.1113H18.7777V26.3891Z" fill="black"/>
<path d="M24.6208 32.3381L20.8889 36.0701L17.157 32.3381L14.1715 35.3236L17.9034 39.0556L14.1715 42.7875L17.157 45.773L20.8889 42.0411L24.6208 45.773L27.6063 42.7875L23.8744 39.0556L27.6063 35.3236L24.6208 32.3381Z" fill="black"/>
<path d="M51.4999 16.8887H36.7222V21.1109H51.4999V16.8887Z" fill="black"/>
<path d="M51.4999 32.7224H36.7222V36.9446H51.4999V32.7224Z" fill="black"/>
<path d="M51.4999 41.1667H36.7222V45.389H51.4999V41.1667Z" fill="black"/>
</svg>
